<?xml version="1.0" standalone="no"?><!DOCTYPE svg PUBLIC "-//W3C//DTD SVG 1.1//EN" "http://www.w3.org/Graphics/SVG/1.1/DTD/svg11.dtd"><svg t="1696917163801" class="icon" viewBox="0 0 1024 1024" version="1.1" xmlns="http://www.w3.org/2000/svg" p-id="8182" xmlns:xlink="http://www.w3.org/1999/xlink" width="200" height="200"><path d="M452.266667 512L362.666667 422.4l59.733333-59.733333 89.6 89.6 89.6-89.6 59.733333 59.733333-89.6 89.6 89.6 89.6-59.733333 59.733333-89.6-89.6-89.6 89.6-59.733333-59.733333 89.6-89.6z m59.733333 341.333333c-187.733333 0-341.333333-153.6-341.333333-341.333333s153.6-341.333333 341.333333-341.333333 341.333333 153.6 341.333333 341.333333-153.6 341.333333-341.333333 341.333333z m0-85.333333c140.8 0 256-115.2 256-256s-115.2-256-256-256-256 115.2-256 256 115.2 256 256 256z" fill="#444444" p-id="8183"></path></svg>